<?xml version="1.0" encoding="utf-8"?>
<!-- Generator: Adobe Illustrator 20.1.0, SVG Export Plug-In . SVG Version: 6.00 Build 0)  -->
<svg version="1.1" id="Layer_1" xmlns="http://www.w3.org/2000/svg" xmlns:xlink="http://www.w3.org/1999/xlink" x="0px" y="0px"
	 viewBox="0 0 396 396" style="enable-background:new 0 0 396 396;" xml:space="preserve">
<style type="text/css">
	.st0{fill:url(#SVGID_1_);}
	.st1{fill:url(#SVGID_2_);}
	.st2{fill:#010101;}
</style>
<g id="Logo">
	
		<linearGradient id="SVGID_1_" gradientUnits="userSpaceOnUse" x1="229.3251" y1="524.86" x2="439.4153" y2="391.69" gradientTransform="matrix(1 0 0 1 -108.82 -289.2)">
		<stop  offset="0" style="stop-color:#45BEA6"/>
		<stop  offset="1" style="stop-color:#B2CD42"/>
	</linearGradient>
	<path class="st0" d="M187.9,179.4c30.9,0,75.9-35.8,75.9-4.9s-25.1,56-56,56s-56-25.1-56-56C151.8,143.7,156.9,179.4,187.9,179.4
		L187.9,179.4z M110.3,213.3c9.5,0,17.2,7.8,17.2,17.3s-7.8,17.2-17.3,17.2S93,240.1,93,230.6C93,221,100.7,213.3,110.3,213.3
		C110.2,213.3,110.3,213.3,110.3,213.3z M202,267.6c7.1,0,7.1,10.8,0,10.8S194.8,267.6,202,267.6z M320.5,191.5
		c7.4,0,13.5,6.1,13.5,13.5s-6.1,13.5-13.5,13.5s-13.5-6-13.5-13.5C307,197.6,313.1,191.5,320.5,191.5L320.5,191.5z M136.8,77.1
		c6.9,0,12.6,5.6,12.6,12.6c0,6.9-5.6,12.6-12.6,12.6s-12.6-5.6-12.6-12.6l0,0C124.2,82.7,129.8,77.1,136.8,77.1z M214.4,42.1
		c9.5,0,9.5,14.4,0,14.4S205,42.1,214.4,42.1L214.4,42.1z M196.9,16.8c6.7,0,12.1,5.4,12.1,12.1S203.6,41,196.9,41
		c-6.7,0-12.1-5.4-12.1-12.1S190.2,16.8,196.9,16.8L196.9,16.8z M220,106.9h-9.4v-4.4h9.4V98h-16.7v-4.4H220v-4.5h-9.4v-4.4h9.4v-5
		h-24.5v32.1c-34.8,6.8-57.4,40.4-50.7,75.2s40.4,57.4,75.2,50.7c34.8-6.8,57.4-40.4,50.7-75.2c-5-25.6-25-45.7-50.7-50.7L220,106.9
		z M232.9,97.5c14.9,4.9,28.1,14,38,26.2c7.2,9,15.6,3.4,15.6-4.8c0-12.9,10.5-23.4,23.4-23.4s23.4,10.5,23.4,23.4
		s-10.5,23.4-23.4,23.4c-3.8,0-7.6-0.9-11-2.8c-9.7-5.1-17.8-2.2-13.9,10.2c7.2,22.6,4.2,47.3-8.4,67.5
		c-9.1,14.5-1.7,16.4,11.9,13.8c16.8-3.3,33.1,7.7,36.3,24.5c3.3,16.8-7.7,33.1-24.5,36.3c-16.8,3.3-33.1-7.7-36.3-24.5
		c-0.8-4.1-0.8-8.4,0.1-12.5c2.8-12.8,0.3-20.4-13.3-11.8c-48.9,30.7-114.2,1.4-123.1-56.3c-3.1-20.4-12-15-22.9-3.7
		c-19.4,20.2-54,6.5-54-21.8c0-17.3,14.1-31.4,31.4-31.4c10.3,0,19.9,5.1,25.8,13.5c7.7,11,15.9,24.3,23.7,3.2
		c8.6-23.3,27.4-41.5,51-49.2V79.5c-9.7,0-9.1-13.4-0.4-13.4h51.1c8.6,0,9.3,13.4-0.4,13.4L232.9,97.5z"/>
	
		<linearGradient id="SVGID_2_" gradientUnits="userSpaceOnUse" x1="-523.0072" y1="563.23" x2="-522.1772" y2="563.23" gradientTransform="matrix(69.87 22.67 -13.12 40.45 44106.6094 -10766.0762)">
		<stop  offset="0" style="stop-color:#09A076"/>
		<stop  offset="1" style="stop-color:#72C273"/>
	</linearGradient>
	<path class="st1" d="M187.9,179.4c-8,0-15.8-2.6-22.2-7.4c13.2,9.8,43.1,33,92,28.2c4.1-7.9,6.2-16.7,6.2-25.6
		C263.8,143.7,218.8,179.4,187.9,179.4z"/>
	<path class="st2" d="M87.8,344.1c0.1,3.1-1.2,6.1-3.7,8c-2.4,2-5.8,2.9-10.2,2.9c-3.7,0.1-7.3-0.7-10.6-2.3v-7.4
		c2.1,1,4.2,1.8,6.4,2.4c1.6,0.4,3.2,0.7,4.8,0.7c1.4,0.1,2.8-0.3,4-1c0.9-0.7,1.5-1.8,1.4-3c0-0.7-0.2-1.4-0.6-2
		c-0.5-0.7-1.1-1.2-1.8-1.7c-1.6-0.9-3.2-1.8-4.9-2.5c-1.8-0.8-3.6-1.9-5.2-3.1c-1.1-1-2.1-2.1-2.8-3.5c-0.7-1.4-1-3-1-4.6
		c-0.1-3,1.1-5.9,3.4-7.8c2.2-1.9,5.4-2.9,9.3-2.9c1.9,0,3.8,0.2,5.6,0.7c1.9,0.5,3.8,1.2,5.6,2l-2.6,6.2c-1.6-0.7-3.3-1.3-5-1.7
		c-1.3-0.3-2.6-0.5-3.9-0.5c-1.2-0.1-2.5,0.3-3.5,1.1c-0.8,0.7-1.2,1.7-1.2,2.7c0,0.6,0.2,1.3,0.5,1.8c0.4,0.6,0.9,1.1,1.6,1.5
		c1.6,1,3.3,1.9,5,2.6c3.5,1.7,5.9,3.4,7.2,5C87.2,339.6,87.9,341.9,87.8,344.1z"/>
	<path class="st2" d="M109.1,354.6h-8v-30.9H90.9V317h28.4v6.6h-10.2L109.1,354.6z"/>
	<path class="st2" d="M148.1,354.6l-2.7-8.9h-13.7l-2.7,8.9h-8.6l13.2-37.7h9.7l13.3,37.7H148.1z M143.4,339
		c-2.5-8.1-3.9-12.7-4.2-13.7c-0.3-1.1-0.5-1.9-0.7-2.5c-0.6,2.2-2.2,7.6-4.9,16.3L143.4,339z"/>
	<path class="st2" d="M191.9,317v24.3c0.1,2.6-0.6,5.1-1.9,7.3c-1.3,2.1-3.1,3.8-5.4,4.8c-2.6,1.2-5.5,1.7-8.3,1.7
		c-4.8,0-8.6-1.2-11.2-3.7s-4-5.9-4-10.1V317h7.9v23c0,2.9,0.6,5,1.8,6.4s3.1,2,5.8,2s4.5-0.7,5.7-2s1.8-3.5,1.8-6.4v-23H191.9z"/>
	<path class="st2" d="M208.9,354.6h-7.8V317h21.5v6.5h-13.7v9.7h12.7v6.5h-12.7V354.6z"/>
	<path class="st2" d="M237.8,354.6H230V317h21.5v6.5h-13.7v9.7h12.7v6.5h-12.7V354.6z"/>
	<path class="st2" d="M280.5,354.6h-21.6V317h21.6v6.5h-13.7v8.2h12.7v6.5h-12.7v9.7h13.7V354.6z"/>
	<path class="st2" d="M296.3,340.2v14.4h-8V317h10.9c5.1,0,8.9,0.9,11.3,2.8s3.7,4.7,3.7,8.5c0,2.1-0.6,4.2-1.8,5.9
		c-1.3,1.8-3.1,3.2-5.2,4c5.6,8.4,9.3,13.9,11,16.4h-8.8l-9-14.4L296.3,340.2z M296.3,333.7h2.6c1.9,0.1,3.9-0.3,5.6-1.3
		c1.2-0.9,1.9-2.4,1.8-4c0.1-1.5-0.6-3-1.8-3.8c-1.8-0.9-3.7-1.3-5.7-1.1h-2.4v10.2H296.3z"/>
	<path class="st2" d="M345.2,344.1c0.1,3.1-1.2,6.1-3.7,8c-2.4,2-5.8,2.9-10.2,2.9c-3.7,0.1-7.3-0.7-10.6-2.3v-7.4
		c2.1,1,4.2,1.8,6.4,2.4c1.6,0.4,3.2,0.7,4.8,0.7c1.4,0.1,2.8-0.3,4-1c1-0.7,1.5-1.8,1.4-3c0-0.7-0.2-1.4-0.6-2
		c-0.5-0.6-1.1-1.2-1.8-1.6c-1.6-0.9-3.2-1.8-4.9-2.5c-1.8-0.8-3.6-1.9-5.2-3.1c-1.1-1-2.1-2.1-2.8-3.5c-0.7-1.4-1-3-1-4.6
		c-0.1-3,1.1-5.9,3.4-7.8s5.4-2.9,9.3-2.9c1.9,0,3.8,0.2,5.6,0.7c1.9,0.5,3.8,1.2,5.6,2l-2.6,6.2c-1.6-0.7-3.3-1.3-5-1.7
		c-1.3-0.3-2.6-0.5-3.9-0.5c-1.2-0.1-2.5,0.3-3.5,1.1c-1.3,1.2-1.6,3.1-0.7,4.6c0.4,0.6,0.9,1.1,1.6,1.5c1.6,1,3.3,1.9,5,2.6
		c3.5,1.7,5.9,3.4,7.2,5C344.6,339.7,345.3,341.9,345.2,344.1z"/>
	<path class="st2" d="M143.3,372.3c0.1,1.9-0.5,3.7-1.6,5.1c-2.7,2.4-6.8,2.4-9.5,0c-1.2-1.4-1.8-3.3-1.6-5.1
		c-0.1-1.9,0.5-3.7,1.7-5.1c2.7-2.4,6.8-2.4,9.5,0C142.8,368.6,143.4,370.5,143.3,372.3z M133.5,372.3c-0.1,1.2,0.2,2.4,0.9,3.4
		c0.6,0.8,1.6,1.2,2.6,1.1c2.3,0,3.4-1.5,3.4-4.5s-1.1-4.5-3.4-4.5c-1-0.1-1.9,0.4-2.5,1.1C133.7,369.9,133.4,371.1,133.5,372.3
		L133.5,372.3z"/>
	<path class="st2" d="M161.7,379h-3.6l-5.8-10.1h-0.1c0.1,1.8,0.2,3.1,0.2,3.8v6.3h-2.5v-13.4h3.6l5.8,10h0.1
		c-0.1-1.7-0.1-3-0.1-3.7v-6.3h2.6V379H161.7z"/>
	<path class="st2" d="M185.4,375.3c0,1.1-0.4,2.2-1.3,2.9c-1.1,0.7-2.3,1.1-3.6,1c-1.3,0-2.6-0.3-3.8-0.8v-2.6
		c0.7,0.3,1.5,0.6,2.3,0.9c0.6,0.2,1.1,0.2,1.7,0.2c0.5,0,1-0.1,1.4-0.4c0.3-0.2,0.5-0.7,0.5-1.1c0-0.3-0.1-0.5-0.2-0.7
		c-0.2-0.2-0.4-0.4-0.6-0.6c-0.6-0.3-1.1-0.6-1.7-0.9c-0.7-0.3-1.3-0.7-1.8-1.1c-0.4-0.3-0.7-0.8-1-1.2c-0.2-0.5-0.4-1.1-0.4-1.6
		c0-1.1,0.4-2.1,1.2-2.8c1-0.7,2.1-1.1,3.3-1c0.7,0,1.3,0.1,2,0.2c0.7,0.2,1.4,0.4,2,0.7l-0.9,2.2c-0.6-0.2-1.2-0.4-1.8-0.6
		c-0.5-0.1-0.9-0.2-1.4-0.2c-0.4,0-0.9,0.1-1.2,0.4c-0.5,0.4-0.6,1.1-0.3,1.6c0.2,0.2,0.3,0.4,0.6,0.5c0.6,0.3,1.2,0.7,1.8,0.9
		c1,0.4,1.9,1,2.6,1.8C185.1,373.7,185.4,374.5,185.4,375.3z"/>
	<path class="st2" d="M197.2,367.8c-1,0-1.9,0.4-2.5,1.2c-0.6,1-0.9,2.2-0.9,3.4c0,3,1.1,4.5,3.4,4.5c1.2,0,2.3-0.3,3.4-0.7v2.4
		c-1.2,0.5-2.4,0.7-3.7,0.7c-1.7,0.1-3.3-0.5-4.5-1.8c-1.1-1.5-1.7-3.3-1.5-5.1c0-1.3,0.2-2.5,0.8-3.7c0.5-1,1.2-1.8,2.2-2.4
		s2.2-0.9,3.3-0.8c1.4,0,2.7,0.3,3.9,0.9l-0.9,2.3c-0.5-0.2-1-0.4-1.5-0.6C198.2,367.9,197.7,367.8,197.2,367.8z"/>
	<path class="st2" d="M207.2,379v-13.4h2.8V379H207.2z"/>
	<path class="st2" d="M224.9,379h-7.7v-13.4h7.7v2.4H220v2.9h4.5v2.3H220v3.5h4.9V379z"/>
	<path class="st2" d="M243.3,379h-3.6l-5.8-10.1h-0.1c0.1,1.8,0.2,3.1,0.2,3.8v6.3h-2.5v-13.4h3.5l5.8,10h0.1
		c-0.1-1.7-0.1-3-0.1-3.7v-6.3h2.6L243.3,379z"/>
	<path class="st2" d="M256.1,367.8c-1,0-1.9,0.4-2.5,1.2c-0.6,1-0.9,2.2-0.9,3.4c0,3,1.1,4.5,3.4,4.5c1.2,0,2.3-0.3,3.4-0.7v2.4
		c-1.2,0.5-2.4,0.7-3.7,0.7c-1.7,0.1-3.3-0.5-4.5-1.8c-1.1-1.5-1.7-3.3-1.5-5.1c0-1.3,0.2-2.5,0.8-3.7c0.5-1,1.2-1.8,2.2-2.4
		s2.2-0.9,3.3-0.8c1.4,0,2.7,0.3,3.9,0.9l-0.9,2.3c-0.5-0.2-1-0.4-1.5-0.6C257.2,367.9,256.6,367.8,256.1,367.8z"/>
	<path class="st2" d="M273.9,379h-7.7v-13.4h7.7v2.4H269v2.9h4.5v2.3H269v3.5h4.9V379z"/>
</g>
</svg>
